<?xml version="1.0" encoding="UTF-8"?>
<svg id="Layer_2" data-name="Layer 2" xmlns="http://www.w3.org/2000/svg" viewBox="0 0 18 18">
  <defs>
    <style>
      .cls-1 {
        fill: #fefefe;
      }

      .cls-2 {
        fill: #585858;
      }
    </style>
  </defs>
  <g id="Layer_2-2" data-name="Layer 2">
    <g>
      <path class="cls-2" d="M9.71,0c4.33.18,8.12,3.96,8.29,8.3v1.41c-.17,4.27-3.93,8.12-8.29,8.3h-1.41C3.95,17.82.2,14,.01,9.74c.03-.48-.04-1,0-1.48.02-1.97.98-3.91,2.3-5.36C3.82,1.25,6.03.02,8.3,0h1.41Z"/>
      <path class="cls-1" d="M18,9.7v8.3h-8.29c.31-.07.64-.09.96-.15,3.41-.63,6.18-3.23,7.05-6.58l.28-1.56Z"/>
      <path class="cls-1" d="M.01,9.74l.29,1.55c.88,3.34,3.65,5.92,7.05,6.56.32.06.64.08.96.15H.01v-8.26Z"/>
      <path class="cls-1" d="M9.71,0h8.29v8.3c-.07-.31-.09-.64-.15-.96-.67-3.63-3.56-6.51-7.18-7.19-.32-.06-.64-.08-.96-.15Z"/>
      <path class="cls-1" d="M8.3,0C3.99.32.35,3.95.01,8.26V0h8.29Z"/>
      <path class="cls-1" d="M13.92,6.47v5.12c0,.41-.59.92-1,.9h-7.8c-.58-.04-1.01-.44-1.04-1.04.1-1.59-.13-3.35,0-4.92,0-.07.06-.4.12-.4l4.78,3.27,4.94-2.92Z"/>
      <path class="cls-1" d="M4.83,5.55c.11,0,.22-.03.33-.04,2.53-.15,5.19.11,7.73,0,.24.02.48.09.65.26l-4.51,2.75-4.2-2.98Z"/>
    </g>
  </g>
</svg>