<?xml version="1.0" encoding="UTF-8"?>
<svg id="Layer_1" data-name="Layer 1" xmlns="http://www.w3.org/2000/svg" viewBox="0 0 85.04 85.04">
  <defs>
    <style>
      .cls-1 {
        fill: #0082c9;
      }
    </style>
  </defs>
  <g id="g861">
    <path class="cls-1" d="M42.55,19.48c-6.9,0-12.74,4.67-14.55,10.99-1.58-3.39-4.97-5.73-8.94-5.73-5.38,0-9.82,4.44-9.82,9.88s4.44,9.88,9.88,9.88c3.92,0,7.36-2.34,8.94-5.73,1.75,6.31,7.6,10.99,14.49,10.99s12.68-4.62,14.55-10.87c1.58,3.27,4.97,5.55,8.82,5.55,5.43,0,9.88-4.44,9.88-9.88s-4.44-9.82-9.88-9.82c-3.86,0-7.25,2.28-8.82,5.55-1.87-6.19-7.66-10.81-14.55-10.81ZM42.55,25.26c5.2,0,9.35,4.15,9.35,9.35s-4.15,9.35-9.35,9.35-9.35-4.15-9.35-9.35,4.15-9.35,9.35-9.35ZM19.12,30.52c2.28,0,4.09,1.81,4.09,4.09s-1.81,4.09-4.09,4.09-4.09-1.81-4.09-4.09,1.81-4.09,4.09-4.09ZM65.92,30.52c2.28,0,4.09,1.81,4.09,4.09s-1.81,4.09-4.09,4.09-4.09-1.81-4.09-4.09c.06-2.28,1.81-4.09,4.09-4.09Z"/>
    <g id="g4571">
      <path class="cls-1" d="M21.6,57.4c2.09,0,3.25,1.49,3.25,3.71,0,.21-.18.39-.39.39h-5.62c.04,1.98,1.41,3.11,3.01,3.11.99,0,1.7-.42,2.05-.71.21-.14.39-.11.5.11l.11.18c.11.18.07.35-.11.5-.42.32-1.34.85-2.58.85-2.3,0-4.07-1.66-4.07-4.07.04-2.55,1.73-4.07,3.85-4.07ZM23.76,60.72c-.07-1.63-1.06-2.44-2.19-2.44-1.31,0-2.44.85-2.69,2.44h4.88Z"/>
      <path class="cls-1" d="M35.47,58.53v-2.72c0-.25.14-.39.39-.39h.28c.25,0,.35.14.35.39v1.84h1.59c.25,0,.39.14.39.39v.11c0,.25-.14.35-.39.35h-1.59v3.89c0,1.8,1.1,2.02,1.7,2.05.32.04.42.11.42.39v.21c0,.25-.11.35-.42.35-1.7,0-2.72-1.03-2.72-2.86,0,0,0-4,0-4Z"/>
      <path class="cls-1" d="M43.56,57.4c1.34,0,2.19.57,2.58.88.18.14.21.32.04.53l-.11.18c-.14.21-.32.21-.53.07-.35-.25-1.03-.71-1.94-.71-1.7,0-3.04,1.27-3.04,3.15s1.34,3.11,3.04,3.11c1.1,0,1.84-.5,2.19-.81.21-.14.35-.11.5.11l.11.14c.11.21.07.35-.11.53-.39.32-1.34.99-2.76.99-2.3,0-4.07-1.66-4.07-4.07.04-2.4,1.8-4.1,4.1-4.1Z"/>
      <path class="cls-1" d="M48.27,54.88c0-.25-.14-.39.11-.39h.28c.25,0,.64.14.64.39v8.45c0,.99.46,1.1.81,1.13.18,0,.32.11.32.35v.25c0,.25-.11.39-.39.39-.64,0-1.77-.21-1.77-1.91,0,0,0-8.66,0-8.66Z"/>
      <path class="cls-1" d="M55.51,57.4c2.26,0,4.1,1.73,4.1,4.03s-1.84,4.1-4.1,4.1-4.1-1.77-4.1-4.1,1.84-4.03,4.1-4.03ZM55.51,64.61c1.66,0,3.01-1.34,3.01-3.18s-1.34-3.08-3.01-3.08-3.04,1.34-3.04,3.08c.04,1.8,1.38,3.18,3.04,3.18Z"/>
      <path class="cls-1" d="M73.16,57.4c1.87,0,2.55,1.56,2.55,1.56h.04s-.04-.25-.04-.6v-3.5c0-.25-.11-.39.14-.39h.28c.25,0,.64.14.64.39v10.08c0,.25-.11.39-.35.39h-.25c-.25,0-.39-.11-.39-.35v-.6c0-.28.07-.5.07-.5h-.04s-.67,1.63-2.69,1.63-3.39-1.66-3.39-4.07c-.07-2.4,1.38-4.03,3.43-4.03ZM73.2,64.61c1.31,0,2.51-.92,2.51-3.15,0-1.59-.81-3.11-2.48-3.11-1.38,0-2.51,1.13-2.51,3.11.04,1.91,1.03,3.15,2.48,3.15Z"/>
      <path class="cls-1" d="M8.63,65.35h.28c.25,0,.39-.14.39-.39v-7.57c0-1.2,1.31-2.05,2.79-2.05s2.79.85,2.79,2.05v7.6c0,.25.14.39.39.39h.28c.25,0,.35-.14.35-.39v-7.67c0-2.02-2.02-3.01-3.85-3.01h0c-1.77,0-3.78.99-3.78,3.01v7.64c0,.25.11.39.35.39Z"/>
      <path class="cls-1" d="M67.64,57.57h-.28c-.25,0-.39.14-.39.39v4.28c0,1.2-.78,2.3-2.3,2.3s-2.3-1.1-2.3-2.3v-4.28c0-.25-.14-.39-.39-.39h-.28c-.25,0-.35.14-.35.39v4.56c0,2.02,1.49,3.01,3.32,3.01h0c1.84,0,3.32-.99,3.32-3.01v-4.56c.04-.25-.11-.39-.35-.39h0Z"/>
      <path id="path4165-9" class="cls-1" d="M32.64,57.54c-.07,0-.18.07-.25.18l-1.41,1.7-1.06,1.27-1.63-1.94-.88-1.06c-.07-.11-.18-.14-.25-.14s-.18.04-.28.11l-.21.18c-.18.14-.18.32-.04.53l1.41,1.7,1.2,1.41-1.73,2.09h0l-.88,1.06c-.14.18-.14.39.04.57l.21.18c.18.14.35.11.53-.07l1.41-1.7,1.06-1.27,1.63,1.94h0l.88,1.06c.14.18.35.21.53.04l.21-.18c.18-.14.18-.32.04-.53l-1.41-1.7-1.2-1.41,1.73-2.09h0l.88-1.06c.14-.18.14-.39-.04-.57l-.21-.21c-.11-.07-.18-.11-.28-.07Z"/>
    </g>
  </g>
</svg>