<?xml version="1.0" encoding="UTF-8"?>
<svg id="Layer_1" data-name="Layer 1" xmlns="http://www.w3.org/2000/svg" viewBox="0 0 85.04 85.04">
  <defs>
    <style>
      .cls-1 {
        fill: #1490df;
      }

      .cls-2 {
        fill: #28a8ea;
      }

      .cls-3 {
        fill: #0364b8;
      }

      .cls-4 {
        fill: #0078d4;
      }
    </style>
  </defs>
  <path class="cls-4" d="M10.23,57.58l37.01-15.39-18.62-11s-1.67-.94-4.28-1.28c-9.61.22-17.34,8.06-17.34,17.73,0,3.83,1.22,7.39,3.28,10.28l-.06-.33Z"/>
  <path class="cls-1" d="M75.53,59.03c1.56-2.33,2.5-5.11,2.5-8.11,0-7.67-6-13.89-13.5-14.39,0-.06,0-.11-.06-.17-2.67-.28-5.11.78-5.11.78l-12.12,5.06,28.29,16.84Z"/>
  <path class="cls-3" d="M47.24,42.24l12.12-5.06s2.5-1.06,5.11-.78c-2.33-9.56-11-16.73-21.29-16.73-7.78,0-14.62,4.06-18.56,10.17h-.28c2.67.33,4.28,1.28,4.28,1.28l18.62,11.12Z"/>
  <path class="cls-2" d="M47.3,42.24l-37.01,15.34.06.33c3.22,4.5,8.5,7.45,14.45,7.45.56,0,1.11-.06,1.67-.06h37.9c4.67-.22,8.78-2.67,11.23-6.28l-28.29-16.78Z"/>
</svg>