<?xml version="1.0" encoding="UTF-8"?>
<svg id="Layer_2" data-name="Layer 2" xmlns="http://www.w3.org/2000/svg" viewBox="0 0 18 18">
  <defs>
    <style>
      .cls-1 {
        fill: #fefefe;
      }

      .cls-2 {
        fill: #444;
      }
    </style>
  </defs>
  <g id="Layer_2-2" data-name="Layer 2">
    <g>
      <rect class="cls-1" width="18" height="18"/>
      <path class="cls-2" d="M8.36.78c6.97-.47,11.45,7.23,7.42,12.97S2.69,17.83,1.01,10.99C-.18,6.11,3.32,1.12,8.36.78Z"/>
      <path class="cls-1" d="M9.58,3.79c-.07.19,0,.73-.02,1.02-.02.44-.13.92-.14,1.34-.03.74,1.03,2.28,1.6,2.76.13.11.78.56.89.58s.4-.05.54-.06c.58-.02,1.29-.04,1.84.1s.96.4.61,1.01c-.17.3-.71.22-1,.19-.78-.1-1.52-.4-2.22-.74-1.43.16-2.86.44-4.22.92-.15.24-.28.49-.44.72-.37.56-1.31,2-2.02,2.02-.2,0-.6-.18-.62-.41-.04-.58.86-1.36,1.29-1.66.11-.07.7-.48.78-.39.11.12-.38.4-.46.47-.49.43-.95,1.02-1.16,1.64.06-.03.13-.04.19-.08,1.06-.56,2.72-3.89,3.2-5.06.14-.33.64-1.54.64-1.82,0-.18-.22-.79-.26-1.06-.08-.52-.11-1.12-.05-1.64s.16-.74.75-.65c.33.05.34.55.25.79Z"/>
      <path class="cls-2" d="M11.07,9.56c0,.05-.06.05-.1.06-.54.15-1.11.22-1.66.38s-1.11.36-1.65.58l.92-1.77c.22-.52.46-1.05.59-1.61.13.15.2.38.3.56.38.69.92,1.38,1.6,1.79Z"/>
      <path class="cls-2" d="M14.8,10.34h-.72c-.1,0-.45-.1-.57-.13-.23-.07-.45-.17-.68-.26,0-.06.12-.07.16-.07.46-.04,1.27.05,1.69.24.11.05.13.08.12.21Z"/>
      <path class="cls-2" d="M9.11,5.2c-.1-.64-.21-1.35.05-1.97.14.06.3.44.28.58,0,.04-.07.11-.08.19-.06.34-.08.77-.18,1.09-.01.05-.01.11-.08.12Z"/>
    </g>
  </g>
</svg>