<?xml version="1.0" encoding="UTF-8"?>
<svg id="Ebene_2" data-name="Ebene 2" xmlns="http://www.w3.org/2000/svg" viewBox="0 0 128 128">
  <defs>
    <style>
      .cls-1 {
        fill: none;
      }

      .cls-2 {
        isolation: isolate;
      }

      .cls-3 {
        fill: #eee;
      }
    </style>
  </defs>
  <g id="Ebene_1-2" data-name="Ebene 1-2">
    <rect class="cls-1" width="128" height="128"/>
  </g>
  <g class="cls-2">
    <path class="cls-3" d="M76.55,49.02c-.88-4.47-2.1-8.45-3.57-11.75-1.54-3.46-3.25-5.96-4.91-7.54-1.64-1.55-3-2.02-4.07-2.02s-2.43.47-4.07,2.02c-1.66,1.58-3.37,4.09-4.91,7.54-1.68,3.82-3.06,8.54-3.96,13.87h21.89c.71-1.15,1.91-2,3.59-2.12Z"/>
    <path class="cls-3" d="M89.8,38.01c-4.5-4.26-10.04-7.44-16.21-9.07,2.9,3.89,5.29,9.49,6.9,16.18.62-1.74,2.12-3.12,4.51-3.12.09,0,.17.02.26.02.36-2.08,1.88-3.92,4.54-4.01Z"/>
    <path class="cls-3" d="M94.77,43.79c-.3,2.21-1.89,4.21-4.77,4.21-.09,0-.17,0-.26-.01-.22,1.25-.85,2.41-1.9,3.16h10.93c-1.06-2.62-2.4-5.08-3.99-7.36Z"/>
    <path class="cls-3" d="M54.43,28.94c-11.48,3.03-20.8,11.35-25.2,22.21h17.09c1.46-9.36,4.37-17.2,8.1-22.21Z"/>
    <path class="cls-3" d="M50.43,55.83c-.31,2.99-.48,6.12-.48,9.38,0,2.43.09,4.8.27,7.09.53-.19,1.12-.3,1.79-.3.06,0,.12,0,.18,0,0-2.3,1.35-4.59,4.07-4.95.04-.25.1-.49.18-.73,0-.03.02-.06.02-.08.07-.23.17-.45.27-.66.02-.04.04-.07.05-.11.11-.21.23-.41.37-.61.02-.03.04-.05.06-.08.15-.2.31-.39.49-.56,0,0,0,0,0,0,.18-.17.38-.32.59-.46.03-.02.06-.04.09-.06.21-.13.43-.24.67-.34.04-.02.09-.04.13-.05.24-.09.5-.16.77-.21.04,0,.08-.01.13-.02.29-.05.59-.08.91-.08.18,0,.36.01.53.03.34-.91.94-1.7,1.78-2.25.42-1.92,1.84-3.58,4.26-3.76.15-.42.34-.83.61-1.19h-17.74Z"/>
    <path class="cls-3" d="M77.85,58.93c-.27.04-.55.07-.85.07-.06,0-.11-.01-.17-.01,0,1.67-.71,3.33-2.14,4.26-.42,1.9-1.83,3.54-4.22,3.73-.63,1.69-2.12,3.02-4.47,3.02-.18,0-.36-.01-.53-.03,0,0,0,0,0,0-.07.18-.15.36-.24.54,0,0,0,.01,0,.02-.27.53-.64,1-1.1,1.39,0,0,0,0-.01.01-.46.39-1.02.69-1.67.87,0,0,0,0-.01,0-.22.06-.44.11-.68.14-.1.57-.28,1.13-.55,1.64h16.39c.31-2.99.48-6.12.48-9.38,0-2.15-.08-4.24-.22-6.28Z"/>
    <path class="cls-3" d="M100.32,55.83h-18.03c.31,3.02.47,6.15.47,9.38s-.16,6.36-.47,9.38h18.03c.78-3,1.19-6.14,1.19-9.38s-.41-6.37-1.19-9.38Z"/>
    <path class="cls-3" d="M73.6,101.48c11.47-3.03,20.79-11.35,25.18-22.21h-17.08c-1.48,9.36-4.37,17.2-8.1,22.21Z"/>
    <path class="cls-3" d="M56.35,79.27c-.69,1.55-2.15,2.73-4.35,2.73-.14,0-.28-.01-.42-.02.87,4.22,2.04,8,3.44,11.15h0c1.54,3.47,3.25,5.98,4.91,7.56,1.64,1.55,3,2.02,4.07,2.02s2.43-.47,4.07-2.04c1.65-1.58,3.37-4.09,4.91-7.54,1.69-3.81,3.06-8.53,3.96-13.86h-20.59Z"/>
    <path class="cls-3" d="M45.26,65.21c0-3.22.16-6.36.47-9.38h-18.03c-.78,3-1.19,6.14-1.19,9.38s.41,6.37,1.19,9.38h18.03c-.31-3.02-.47-6.15-.47-9.38Z"/>
    <path class="cls-3" d="M47.57,85.49c-.72.81-1.76,1.35-3.09,1.46-.48,1.3-1.47,2.39-2.96,2.83-.45,1.35-1.41,2.51-2.93,2.98,4.43,4.08,9.83,7.13,15.84,8.71-2.87-3.85-5.25-9.38-6.86-15.98Z"/>
    <path class="cls-3" d="M39.55,80.02c.1-.26.19-.51.33-.75h-10.65c.92,2.28,2.08,4.44,3.41,6.47.51-1.16,1.45-2.11,2.82-2.53.55-1.67,1.92-3.03,4.09-3.2Z"/>
  </g>
</svg>