<?xml version="1.0" encoding="UTF-8"?>
<svg id="Ebene_2" data-name="Ebene 2" xmlns="http://www.w3.org/2000/svg" viewBox="0 0 128 128">
  <defs>
    <style>
      .cls-1 {
        fill: none;
      }

      .cls-2 {
        isolation: isolate;
      }

      .cls-3 {
        fill: #eee;
      }
    </style>
  </defs>
  <g id="Ebene_1-2" data-name="Ebene 1-2">
    <rect class="cls-1" width="128" height="128"/>
  </g>
  <g class="cls-2">
    <path class="cls-3" d="M27.69,55.83h18.03c-.31,3.02-.47,6.15-.47,9.38s.16,6.36.47,9.38h-18.03c-.78-3-1.19-6.14-1.19-9.38s.41-6.37,1.19-9.38ZM46.33,51.15h-17.09c4.39-10.85,13.71-19.17,25.2-22.21-3.74,5.01-6.64,12.85-8.1,22.21ZM46.33,79.27c1.46,9.36,4.37,17.2,8.1,22.21-11.48-3.03-20.8-11.35-25.2-22.21h17.09ZM78.07,65.21c0,3.25-.18,6.39-.48,9.38h-27.16c-.32-2.99-.48-6.12-.48-9.38s.18-6.39.48-9.38h27.16c.32,2.99.48,6.12.48,9.38ZM76.94,51.15h-25.87c.89-5.33,2.27-10.05,3.96-13.87,1.54-3.46,3.25-5.96,4.91-7.54,1.64-1.55,3-2.02,4.07-2.02s2.43.47,4.07,2.02c1.65,1.58,3.37,4.09,4.91,7.54,1.7,3.81,3.06,8.53,3.96,13.87ZM55.03,93.13c-1.7-3.81-3.06-8.53-3.96-13.86h25.87c-.89,5.33-2.27,10.05-3.96,13.86-1.54,3.46-3.25,5.96-4.91,7.54-1.64,1.57-3,2.04-4.07,2.04s-2.43-.47-4.07-2.02c-1.66-1.58-3.37-4.09-4.91-7.54h0ZM98.78,51.15h-17.1c-1.46-9.36-4.37-17.2-8.1-22.21,11.47,3.03,20.8,11.35,25.18,22.21h.02ZM98.78,79.27c-4.39,10.85-13.71,19.17-25.18,22.21,3.74-5.01,6.62-12.85,8.1-22.21h17.08ZM82.29,55.83h18.03c.78,3,1.19,6.14,1.19,9.38s-.41,6.37-1.19,9.38h-18.03c.31-3.02.47-6.15.47-9.38s-.16-6.36-.47-9.38Z"/>
  </g>
</svg>