<?xml version="1.0" encoding="UTF-8"?>
<svg id="Layer_1" xmlns="http://www.w3.org/2000/svg" viewBox="0 0 291.4 64">
  <g id="Ebene_2">
    <g>
      <g id="Ebene_1-2">
        <g>
          <path id="Pfad_23" d="M68.88,24.98h0c1.84,0,3.4,1.56,3.4,3.55v6.95c0,1.99-1.42,3.55-3.4,3.55s-3.4-1.56-3.4-3.55v-6.95c0-1.99,1.42-3.55,3.4-3.55"/>
          <path id="Pfad_24" d="M86.05,24.98h0c1.84,0,3.4,1.56,3.4,3.55v6.95c0,1.99-1.42,3.55-3.4,3.55s-3.4-1.56-3.4-3.55v-6.95c0-1.99,1.42-3.55,3.4-3.55"/>
          <path d="M92.72,11.22h-30.22c-10.5.43-18.87,9.08-19.29,20-.14,5.53,1.7,10.78,4.97,14.61.43.43.43,1.28,0,1.7-.71.85-1.99,2.13-3.12,3.55-.71.71,0,1.99.85,1.99h46.96c10.5-.43,18.87-9.08,19.29-20,.43-11.49-8.23-21.14-19.29-21.71h0l-.14-.14ZM92.72,48.1h-30.22c-8.51,0-15.46-7.09-15.46-16.03s6.95-16.03,15.46-16.03h30.78c8.65,0,15.46,7.52,15.32,16.17,0,8.94-7.24,15.89-15.75,15.75h0l-.14.14Z"/>
        </g>
      </g>
      <g>
        <path d="M128.75,10.93h31.49v10.36h-18.02v5.25h15.6v10.64h-15.6v5.25h18.02v10.36h-31.49V10.93Z"/>
        <path d="M162.37,10.93h14.04l8.51,25.39,8.51-25.39h14.19l-15.6,41.71h-14.19s-15.46-41.71-15.46-41.71Z"/>
        <path d="M218.41,10.93h14.19l15.6,41.71h-14.04l-3.12-8.37h-10.92l-3.12,8.37h-14.04l15.46-41.71h0ZM229.33,34.62l-3.83-10.07-3.83,10.07h7.66Z"/>
      </g>
    </g>
  </g>
</svg>