<?xml version="1.0" encoding="UTF-8"?>
<svg id="Ebene_2" xmlns="http://www.w3.org/2000/svg" xmlns:xlink="http://www.w3.org/1999/xlink" viewBox="0 0 128 128">
  <defs>
    <style>
      .cls-1 {
        fill: none;
      }

      .cls-2 {
        fill: #eee;
      }

      .cls-3 {
        clip-path: url(#clippath);
      }
    </style>
    <clipPath id="clippath">
      <rect class="cls-1" x=".36" y="26.79" width="127.29" height="74.42"/>
    </clipPath>
  </defs>
  <g id="Group_209">
    <g class="cls-3">
      <g id="Group_208">
        <path id="Path_70" class="cls-2" d="M48.04,51.55h0c3.43,0,6.21,2.78,6.21,6.21h0v12.49c0,3.43-2.78,6.21-6.22,6.21-3.43,0-6.21-2.78-6.21-6.21v-12.49c0-3.43,2.78-6.21,6.21-6.21h0"/>
        <path id="Path_71" class="cls-2" d="M79.84,51.55h0c3.43,0,6.21,2.78,6.21,6.21h0v12.49c.05,3.43-2.69,6.25-6.12,6.3-3.43.05-6.25-2.69-6.3-6.12,0-.06,0-.12,0-.18v-12.49c0-3.43,2.78-6.21,6.21-6.21h0"/>
        <path id="Path_72" class="cls-2" d="M91.95,26.79h-55.92C15.49,27.65-.47,45.01.39,65.56c.36,8.49,3.6,16.6,9.2,22.99.75.81.74,2.06-.02,2.87-1.43,1.49-3.75,3.96-5.9,6.26-.79.85-.75,2.18.1,2.97.39.36.9.57,1.44.56h86.73c20.55-.86,36.51-18.21,35.66-38.76-.81-19.35-16.31-34.85-35.66-35.66M91.95,92.64h-55.92c-15.82-.22-28.47-13.22-28.25-29.04.21-15.51,12.74-28.03,28.25-28.25h56.81c15.82.06,28.6,12.94,28.54,28.76-.06,15.82-12.94,28.6-28.76,28.54-.23,0-.45,0-.68-.01"/>
      </g>
    </g>
  </g>
</svg>