<?xml version="1.0" encoding="UTF-8"?>
<svg id="Ebene_1" xmlns="http://www.w3.org/2000/svg" viewBox="0 0 512 512">
  <defs>
    <style>
      .cls-1 {
        fill: #fff;
      }
    </style>
  </defs>
  <path id="Pfad_23" class="cls-1" d="M219.19,227.27h0c7.91,0,14.32,6.41,14.32,14.32v28.81c0,7.91-6.42,14.33-14.33,14.33-7.91,0-14.33-6.42-14.33-14.33v-28.81c0-7.91,6.41-14.32,14.32-14.32"/>
  <path id="Pfad_24" class="cls-1" d="M292.53,227.27h0c7.91,0,14.32,6.41,14.32,14.32v28.81c0,7.91-6.42,14.33-14.33,14.33-7.91,0-14.33-6.42-14.33-14.33v-28.81c0-7.91,6.41-14.32,14.32-14.32"/>
  <path class="cls-1" d="M320.48,170.17h-128.97c-44.6,1.89-80.32,37.61-82.2,82.21-1.02,24.05,7.95,46.2,23.22,62.46,1.11,1.18,1.08,3.02-.08,4.16-5.99,5.91-11.99,11.83-17.98,17.74-1.9,1.87-.57,5.1,2.09,5.1h203.92c44.6-1.89,80.32-37.61,82.21-82.21,2-47.4-34.8-87.45-82.21-89.46ZM387.56,257.01c-.56,36.48-30.59,65.6-67.08,65.04h-128.97c-36.45-.03-65.99-29.57-66.01-66.02-.03-36.48,29.53-66.08,66.01-66.11h131.01c36.49.56,65.6,30.6,65.04,67.08Z"/>
</svg>